<svg width="20" height="20" viewBox="0 0 20 20" fill="none" xmlns="http://www.w3.org/2000/svg">
<path d="M2.20025 0.242676L2.30825 0.252276C2.42814 0.274178 2.53851 0.332068 2.62469 0.418243C2.71086 0.504417 2.76875 0.614791 2.79065 0.734676L2.80025 0.842676V3.49588C4.23622 1.86717 6.18192 0.773366 8.31968 0.393046C10.4574 0.0127258 12.661 0.368354 14.5706 1.40187C16.4802 2.43539 17.983 4.08574 18.8337 6.08349C19.6844 8.08124 19.8327 10.3084 19.2545 12.4013C18.6762 14.4942 17.4055 16.3293 15.6498 17.6069C13.8942 18.8845 11.7572 19.5292 9.58791 19.4357C7.41859 19.3423 5.34502 18.5161 3.70576 17.0922C2.06649 15.6683 0.958349 13.7308 0.562253 11.5959C0.434012 10.8107 0.38177 10.015 0.406253 9.21988C0.420032 9.06617 0.492502 8.92369 0.608603 8.82204C0.724704 8.72038 0.87551 8.66736 1.02968 8.67401C1.18386 8.68065 1.32954 8.74644 1.43647 8.85771C1.5434 8.96897 1.60334 9.11716 1.60385 9.27148C1.58325 9.97621 1.62906 10.6813 1.74065 11.3775C2.09444 13.2859 3.09817 15.0129 4.58125 16.2649C6.06433 17.517 7.93523 18.2168 9.87593 18.2454C11.8166 18.2741 13.7074 17.6298 15.2268 16.4221C16.7462 15.2144 17.8004 13.5177 18.2104 11.6206C18.6204 9.7235 18.3607 7.74295 17.4756 6.01562C16.5905 4.28828 15.1345 2.92077 13.3551 2.14552C11.5757 1.37027 9.58281 1.23513 7.71508 1.76307C5.84735 2.29101 4.22007 3.44945 3.10985 5.04148H6.39785L6.50585 5.05228C6.64419 5.07732 6.76934 5.15016 6.85946 5.25806C6.94958 5.36596 6.99895 5.50209 6.99895 5.64268C6.99895 5.78326 6.94958 5.91939 6.85946 6.02729C6.76934 6.1352 6.64419 6.20803 6.50585 6.23308L6.39785 6.24268H2.20025L2.09225 6.23308C1.9722 6.2111 1.86171 6.15303 1.77552 6.06662C1.68933 5.98022 1.63153 5.86958 1.60985 5.74948L1.60025 5.64148V0.841476L1.60985 0.733476C1.63197 0.61381 1.68996 0.5037 1.77612 0.417756C1.86228 0.331813 1.97253 0.2741 2.09225 0.252276L2.20025 0.242676ZM9.40025 5.04268L9.50825 5.05228C9.62814 5.07418 9.73851 5.13207 9.82469 5.21824C9.91086 5.30442 9.96875 5.41479 9.99065 5.53468L10.0003 5.64268V9.84628H12.4003L12.5083 9.85588C12.6459 9.88158 12.7702 9.95462 12.8597 10.0623C12.9491 10.17 12.9981 10.3057 12.9981 10.4457C12.9981 10.5857 12.9491 10.7213 12.8597 10.829C12.7702 10.9367 12.6459 11.0098 12.5083 11.0355L12.4003 11.0463H9.40025L9.29225 11.0367C9.17237 11.0148 9.06199 10.9569 8.97582 10.8707C8.88964 10.7845 8.83175 10.6742 8.80985 10.5543L8.80025 10.4463V5.64388L8.80985 5.53588C8.83175 5.41599 8.88964 5.30562 8.97582 5.21944C9.06199 5.13327 9.17237 5.07538 9.29225 5.05348L9.40025 5.04388V5.04268Z" fill="white"/>
</svg>
