<svg width="24" height="20" viewBox="0 0 24 20" fill="none" xmlns="http://www.w3.org/2000/svg">
<path d="M12.0001 0.679451C9.90189 0.677047 7.84683 1.27514 6.07762 2.4031C4.30841 3.53106 2.89894 5.14176 2.01568 7.04498C1.13241 8.9482 0.812254 11.0644 1.09301 13.1438C1.37376 15.2231 2.24369 17.1786 3.60008 18.7795L3.80008 19.0128H20.2001L20.4001 18.7795C21.7565 17.1786 22.6264 15.2231 22.9071 13.1438C23.1879 11.0644 22.8677 8.9482 21.9845 7.04498C21.1012 5.14176 19.6917 3.53106 17.9225 2.4031C16.1533 1.27514 14.0983 0.677047 12.0001 0.679451ZM19.5601 17.6795H4.44008C3.24386 16.1826 2.5219 14.3626 2.36674 12.4528H4.66674V11.1195H2.36674C2.47839 9.0026 3.28705 6.98212 4.66674 5.37278L6.30008 7.00612L7.24008 6.06612L5.62008 4.42612C7.20892 3.02181 9.21775 2.18265 11.3334 2.03945V4.37278H12.6667V2.04612C15.0037 2.2156 17.1991 3.22986 18.843 4.89953C20.4869 6.5692 21.467 8.78012 21.6001 11.1195H19.2801V12.4528H21.6334C21.4782 14.3626 20.7563 16.1826 19.5601 17.6795Z" fill="#FBBC05"/>
</svg>
